<svg width="100" height="33" viewBox="0 0 100 33" fill="none" xmlns="http://www.w3.org/2000/svg">
<path d="M16.1651 23.7705L16.0732 24.0792C15.7102 25.3068 14.9539 26.3862 13.9169 27.1569C12.8799 27.9276 11.6178 28.3483 10.3182 28.3564C8.57655 28.3564 7.16489 27.7756 6.00261 26.5808C4.84034 25.3859 4.25008 23.8934 4.25008 22.146C4.25008 20.3885 4.82192 18.9633 5.99814 17.7887C7.1569 16.6319 8.6103 16.0452 10.3182 16.0452C11.6553 16.0452 12.8084 16.4136 13.8432 17.1714C14.8734 17.9256 15.6192 18.9956 15.9629 20.2128L16.0549 20.5214H20.2975L20.1869 20.0033C19.6909 17.6793 18.5289 15.7469 16.7343 14.2596C14.9246 12.76 12.8261 12.0311 10.3187 12.0311C7.3699 12.0311 4.89233 13.0122 2.95517 14.9472C0.994806 16.9045 0 19.3393 0 22.183C0 25.0267 0.99422 27.4612 2.95517 29.419C4.91612 31.3769 7.39467 32.3716 10.3187 32.3716C12.8155 32.3716 14.9863 31.6217 16.7711 30.1431C18.5965 28.6306 19.7708 26.6603 20.2613 24.2868L20.3679 23.771L16.1651 23.7705Z" fill="#363636"/>
<path d="M31.924 12.5605C29.9019 12.5605 28.1744 13.1308 26.8028 14.2342V6.17786H22.7266V32.371H26.8028V22.6576C26.8028 18.7991 28.6183 16.5862 31.7835 16.5862C35.2624 16.5862 35.7817 19.3227 35.7817 20.9538V32.3713H39.893V20.9538C39.893 15.9335 36.6905 12.5605 31.924 12.5605Z" fill="#363636"/>
<path d="M99.9999 10.3139C97.3144 10.1134 95.5367 10.3175 95.5367 12.6504V12.8384H99.9999V16.7862H95.6818V32.3711H91.5051V16.7857H87.8984V12.8379H91.5051V12.6499C91.5051 9.99114 92.1069 9.12091 93.6019 7.74083C95.0969 6.36075 97.0359 6.04691 99.9997 6.22201L99.9999 10.3139Z" fill="#363636"/>
<path d="M80.6816 12.4042V14.0486C79.0215 12.7524 76.7957 12.0306 74.5492 12.0306C73.224 12.0269 71.9115 12.2839 70.6888 12.7866C69.4661 13.2893 68.3579 14.0275 67.4295 14.9578C65.5133 16.8658 64.458 19.4384 64.458 22.2008C64.458 24.9632 65.5133 27.5354 67.4295 29.4438C68.3579 30.3741 69.466 31.1123 70.6887 31.615C71.9115 32.1177 73.224 32.3748 74.5492 32.3711C76.7957 32.3711 79.0215 31.6493 80.6816 30.353V31.9976H84.733V12.4042H80.6816ZM74.6845 28.1267C71.3843 28.1267 68.799 25.5238 68.799 22.2008C68.799 18.8778 71.3843 16.2751 74.6845 16.2751C77.9657 16.2751 80.5363 18.878 80.5363 22.2008C80.5363 25.5236 77.966 28.1267 74.6845 28.1267Z" fill="#363636"/>
<path fill-rule="evenodd" clip-rule="evenodd" d="M44.1623 12.9396C46.4821 10.0613 49.5542 9.2937 53.0315 9.7197C52.999 8.74317 52.6301 7.99076 52.0395 7.49377C53.6787 5.8339 54.4067 4.18507 53.73 2.55563C53.018 0.840502 50.7529 -0.0950639 48.1453 1.46444C47.1348 0.147103 45.4288 -0.368127 43.8773 0.277684C42.4128 0.888474 41.1821 2.60629 41.4046 4.28486C39.1957 5.117 37.9179 6.7758 38.6025 8.42434C39.572 10.7589 42.6656 10.0159 44.0773 11.9726C43.5493 8.65999 40.7534 10.2285 39.8906 8.15118C39.297 6.72159 40.8703 4.82187 43.3464 5.69497C42.3262 3.59203 42.919 2.05287 44.4397 1.4416C45.8442 0.877154 47.3318 1.54714 48.4829 3.47488C49.4874 0.858443 51.9567 1.87854 52.586 3.39362C53.1399 4.72726 52.4329 6.04594 50.1477 6.77542C48.6507 6.65434 46.8077 7.30609 45.1849 8.81455C47.8034 7.41746 49.8662 7.32228 51.3733 8.52902C47.7419 8.82088 45.0853 10.0444 44.1625 12.9393L44.1623 12.9396Z" fill="#363636"/>
<path d="M53.7893 22.9581C51.1544 22.9581 48.5196 22.9581 45.8847 22.9581C45.7049 22.9581 45.7065 22.957 45.7317 23.1364C45.8734 24.1258 46.243 25.0702 46.8123 25.8977C47.3815 26.7252 48.1354 27.4138 49.0163 27.9111C49.8345 28.3788 50.7488 28.6604 51.6921 28.7353C53.3808 28.8888 55.0636 28.386 56.3803 27.3345C56.5631 27.1907 56.7383 27.0377 56.905 26.876C56.9513 26.8317 56.9569 26.8102 56.8975 26.7662C56.6969 26.6183 56.5037 26.4607 56.3065 26.3084C56.1093 26.156 55.9081 26.0082 55.713 25.853C55.5839 25.7503 55.4478 25.6566 55.3257 25.5445C55.1404 25.3746 55.2185 24.9733 55.3951 24.8852C55.5014 24.8381 55.6152 24.8095 55.7314 24.8006C55.9504 24.7739 60.9 23.9851 61.2321 23.9361C61.3498 23.9189 61.4662 23.8915 61.5839 23.8797C61.6458 23.8715 61.7088 23.878 61.7676 23.8986C61.8265 23.9191 61.8795 23.9532 61.9223 23.9979C61.9651 24.0427 61.9964 24.0968 62.0137 24.1558C62.031 24.2149 62.0337 24.2771 62.0216 24.3374C62.0119 24.4088 61.5428 29.9418 61.5269 30.105C61.5098 30.28 61.5034 30.4607 61.3269 30.5698C61.27 30.6075 61.2029 30.6276 61.1343 30.6274C61.0657 30.6273 60.9988 30.6069 60.9421 30.5689C60.8306 30.4852 60.7298 30.3886 60.642 30.281C60.4703 30.097 60.3018 29.9103 60.1315 29.725C60.0063 29.5887 59.8797 29.4538 59.7553 29.3169C59.6746 29.2282 59.6758 29.227 59.5926 29.3112C58.7897 30.1277 57.852 30.8044 56.8192 31.3126C55.3723 32.0252 53.7733 32.3875 52.1553 32.3695C50.5372 32.3515 48.947 31.9536 47.5168 31.2091C45.8376 30.3281 44.437 29.0098 43.4682 27.3984C42.4994 25.7869 41.9997 23.9445 42.0238 22.0725C42.0478 20.2005 42.5947 18.371 43.6046 16.7842C44.6145 15.1974 46.0485 13.9143 47.7498 13.0753C48.8024 12.5543 49.9414 12.223 51.1128 12.0973C53.1381 11.8589 55.1889 12.2364 56.9895 13.1791C59.0261 14.2329 60.5383 15.8015 61.528 17.8594C62.1 19.0504 62.4284 20.3404 62.4945 21.656C62.5042 21.8295 62.5088 22.003 62.5083 22.1767C62.5099 22.3375 62.4605 22.4948 62.3667 22.6266C62.273 22.7584 62.1398 22.8581 61.9856 22.9117C61.8544 22.9514 61.7169 22.967 61.58 22.9576C58.9831 22.9582 56.3861 22.9584 53.7891 22.958L53.7893 22.9581ZM52.2672 19.7271H54.7591C55.9395 19.7271 57.12 19.7273 58.3003 19.7277C58.3526 19.7277 58.3919 19.7332 58.3583 19.6557C57.7721 18.2557 56.7052 17.1023 55.3435 16.3966C54.2711 15.8278 53.0563 15.5709 51.841 15.656C51.0118 15.7041 50.2003 15.9118 49.4525 16.2673C47.9769 16.9542 46.8132 18.1557 46.1869 19.6387C46.1479 19.7269 46.1487 19.7272 46.2428 19.7272L52.2672 19.7271Z" fill="#363636"/>
</svg>
